<?xml version="1.0" encoding="UTF-8"?>
<svg version="1.1" viewBox="0 0 900 900" width="225" height="225" xmlns="http://www.w3.org/2000/svg">
<path transform="translate(0)" d="m0 0h900v900h-900z" fill="#FEFEFE"/>
<path transform="translate(254,358)" d="m0 0h44l29 3 27 5 23 6 28 10 33 16 23 14 17 13 11 9 17 17 9 11 10 13 9 15 8 16 7 18 5 19 3 22v27l-3 19-5 19-8 20-10 19-7 10-12 16-7 7-7 8-8 7-12 10-17 12-15 9-23 12-25 10-18 6-31 8-32 5-23 2h-20l-25-2-28-4-34-7-8-2h-6l-24 11-38 16-30 13-19 8-22 9h-2l1-5 8-25 6-23 4-23v-27l-4-18-7-17-11-19-8-13-9-16-7-17-6-21-3-15-1-10v-22l3-21 5-21 10-25 8-14 8-12 12-16 12-13 11-11 17-13 18-12 18-10 21-10 24-9 24-7 22-5 27-4z" fill="#416BE4"/>
<path transform="translate(485,68)" d="m0 0 39 1 32 3 33 5 27 6 28 8 25 9 26 11 17 8 23 13 20 12 14 10 13 10 14 12 12 11 13 13 7 8 10 12 11 15 12 19 12 22 8 19 8 24 5 21 3 17 2 21v25l-4 26-6 25-5 16-8 20-8 17-12 21-11 17-12 19-8 15-6 18-3 16-1 12v32l2 22 5 26 7 26 10 30 5 10v5l-25-10-34-15-36-15-30-13-33-14-35-15-15-6-11 3-25 7-28 6-28 4-16 1 6-8 14-19 12-19 7-11 9-3 51-9 26-6h7l20 11 16 8 28 15 29 15 16 9 6 2-8-31-6-32-2-14-1-13v-10l2-18 5-19 7-14 12-18 9-13 10-16 9-16 11-24 10-30 4-22 1-21v-13l-1-18-3-17-5-19-7-19-8-17-9-15-8-11-13-16-14-15-7-7-8-7-15-12-19-13-11-7-11-6-24-12-24-10-24-9-27-8-30-7-27-5-34-4-17-1h-24l-27 2-29 5-28 7-30 10-23 10-25 12-24 14-17 11-11 8-12 9-13 11-10 9-12 11-10 11-9 11-12 16-9 15-8 16-7 18-5 18-2 11-1 12-3 5-14 9-18 10-24 13-14 7-1-2 3-39 3-22 6-24 7-20 8-19 10-19 10-16 10-14 8-10 9-11 14-15 11-11 8-7 13-11 16-12 19-13 15-9 18-10 25-12 31-12 34-11 32-8 27-5 31-4 12-1z" fill="#416BE4"/>
</svg>
